<?xml version="1.0" standalone="no"?><!DOCTYPE svg PUBLIC "-//W3C//DTD SVG 1.1//EN" "http://www.w3.org/Graphics/SVG/1.1/DTD/svg11.dtd"><svg t="1720754795538" class="icon" viewBox="0 0 1024 1024" version="1.1" xmlns="http://www.w3.org/2000/svg" p-id="4449" width="25" height="25" xmlns:xlink="http://www.w3.org/1999/xlink"><path d="M1024 535.428571q0 32-4 59.428572H362.285714q0 83.428571 62.571429 139.714286T572 790.857143q56.571429 0 106-26.571429T756 689.714286h241.714286q-32 90.857143-97.428572 160.571428T747.428571 958 564 996q-106.857143 0-203.428571-47.428571-130.285714 66.285714-225.142858 66.285714-135.428571 0-135.428571-150.285714 0-65.714286 25.714286-157.142858 9.714286-34.285714 62.285714-130.857142 113.714286-205.714286 271.428571-346.285715-105.142857 45.142857-244 202.285715 36-156.571429 162-256.857143T564 75.428571q17.142857 0 25.714286 0.571429 145.714286-66.857143 247.428571-66.857143 36.571429 0 66.285714 7.428572t54 23.142857T995.428571 83.428571t13.714286 65.714286q0 66.285714-42.857143 163.428572 57.714286 104 57.714286 222.857142z m-40-365.714285q0-47.428571-30.285714-75.428572t-78.285715-28q-61.714286 0-145.142857 40 69.142857 26.857143 127.142857 75.142857T954.857143 293.142857q29.142857-77.142857 29.142857-123.428571zM73.142857 876.571429q0 49.142857 27.714286 75.714285T177.714286 978.857143q65.714286 0 152-47.428572-69.714286-41.142857-122-104.571428T129.142857 686.857143q-56 117.142857-56 189.714286z m288-407.428572h416q-2.857143-81.142857-64.571428-135.428571t-143.428572-54.285715q-82.285714 0-143.714286 54.285715T361.142857 469.142857z" p-id="4450"></path></svg>